<svg width="30" height="30" viewBox="0 0 30 30" fill="none" xmlns="http://www.w3.org/2000/svg">
<path opacity="0.4" d="M22.3265 4.67227H17.9119C16.8121 4.67954 15.768 4.19033 15.0711 3.34126L13.6173 1.33144C12.9321 0.47492 11.8879 -0.0165829 10.7898 0.000427436H7.66891C2.06728 0.000427436 1.57532e-05 3.28802 1.57532e-05 8.87825V14.921C-0.00695426 15.5856 29.9935 15.5847 29.9954 14.921V13.1641C30.0221 7.57387 28.0082 4.67227 22.3265 4.67227Z" fill="#5669FF"/>
<path fill-rule="evenodd" clip-rule="evenodd" d="M28.2482 6.81518C28.7281 7.3763 29.099 8.02177 29.3419 8.71852C29.8197 10.1505 30.041 11.6554 29.9954 13.1641V21.0437C29.9935 21.7074 29.9444 22.3701 29.8487 23.0269C29.6663 24.186 29.2585 25.2983 28.6483 26.3011C28.3678 26.7856 28.0273 27.2328 27.6347 27.6322C25.8575 29.2633 23.4974 30.1123 21.0861 29.988H8.89592C6.48074 30.1114 4.11692 29.2627 2.33401 27.6322C1.94611 27.232 1.61005 26.7848 1.33372 26.3011C0.727126 25.299 0.328035 24.1856 0.160049 23.0269C0.0532341 22.3712 -0.000289039 21.708 1.41404e-06 21.0437V13.1641C-0.000258672 12.506 0.0353599 11.8484 0.1067 11.1942C0.121702 11.0794 0.144204 10.9665 0.166472 10.8548C0.203596 10.6685 0.240073 10.4855 0.240073 10.3024C0.37546 9.51294 0.622438 8.74662 0.973619 8.0264C2.01392 5.80361 4.14787 4.67226 7.64222 4.67226H22.3131C24.2703 4.52089 26.2129 5.11008 27.7547 6.32271C27.9323 6.47328 28.0973 6.63797 28.2482 6.81518ZM7.4555 20.3116H22.5532H22.5799C22.9112 20.326 23.2344 20.2074 23.4775 19.9824C23.7206 19.7573 23.8632 19.4444 23.8736 19.1137C23.8923 18.823 23.7966 18.5365 23.6069 18.3151C23.3886 18.0176 23.0427 17.8401 22.6733 17.8359H7.4555C6.77047 17.8359 6.21514 18.3901 6.21514 19.0738C6.21514 19.7574 6.77047 20.3116 7.4555 20.3116Z" fill="#5669FF"/>
</svg>
